<?xml version="1.0" standalone="no"?><!DOCTYPE svg PUBLIC "-//W3C//DTD SVG 1.1//EN" "http://www.w3.org/Graphics/SVG/1.1/DTD/svg11.dtd"><svg t="1610852760057" class="icon" viewBox="0 0 1024 1024" version="1.1" xmlns="http://www.w3.org/2000/svg" p-id="4035" xmlns:xlink="http://www.w3.org/1999/xlink" width="200" height="200"><defs><style type="text/css"></style></defs><path d="M1003.27727408 492.97256297v-1.09226667c0-1.33499259-0.12136297-2.79134815-0.12136297-4.12634074s-0.12136297-2.79134815-0.24272593-4.12634074-0.12136297-2.66998518-0.24272593-4.00497778v-0.24272592-0.3640889-0.24272592c0-0.24272592 0-0.60681482-0.12136295-0.84954074-0.12136297-0.84954075-0.12136297-1.69908148-0.24272593-2.54862222-0.12136297-1.33499259-0.24272592-2.66998518-0.36408889-4.12634075-0.12136297-0.9709037-0.24272592-2.06317037-0.36408889-3.03407407-0.12136297-0.60681482-0.12136297-1.21362963-0.24272592-1.82044444v-0.12136296c-0.12136297-0.9709037-0.24272592-2.06317037-0.36408889-3.03407408-0.12136297-1.33499259-0.36408889-2.66998518-0.60681481-4.00497778-0.24272592-1.33499259-0.36408889-2.66998518-0.60681482-4.00497777l-0.72817778-4.00497779c-0.12136297-0.60681482-0.24272592-1.09226667-0.24272592-1.69908148-0.12136297-0.84954075-0.36408889-1.82044445-0.48545186-2.66998518-0.12136297-0.36408889-0.12136297-0.72817778-0.24272592-0.9709037-0.24272592-1.45635555-0.60681482-3.03407408-0.9709037-4.49042964-0.12136297-0.72817778-0.24272592-1.45635555-0.48545186-2.18453333 0-0.12136297 0-0.24272592-0.12136296-0.24272592-0.12136297-0.84954075-0.36408889-1.69908148-0.60681482-2.42725926-0.12136297-0.84954075-0.36408889-1.69908148-0.60681481-2.54862222 0-0.24272592-0.12136297-0.48545185-0.12136297-0.72817778-0.12136297-0.48545185-0.24272592-0.9709037-0.36408888-1.57771852-0.24272592-0.84954075-0.36408889-1.57771852-0.60681482-2.42725925l-0.72817777-2.91271112v-0.12136296c-0.24272592-0.72817778-0.48545185-1.57771852-0.60681483-2.3058963-0.12136297-0.36408889-0.12136297-0.60681482-0.24272592-0.9709037v-0.12136297c0-0.12136297-0.12136297-0.24272592-0.12136296-0.48545185 0-0.12136297 0-0.12136297-0.12136296-0.24272593-0.12136297-0.36408889-0.12136297-0.72817778-0.24272593-0.9709037-0.24272592-0.72817778-0.48545185-1.45635555-0.72817778-2.3058963l-0.72817778-2.54862222c-0.36408889-1.33499259-0.72817778-2.54862222-1.21362962-3.76225185-0.12136297-0.60681482-0.36408889-1.09226667-0.60681482-1.69908148-0.24272592-0.72817778-0.48545185-1.45635555-0.72817778-2.06317037-0.36408889-0.9709037-0.72817778-2.06317037-1.09226667-3.03407408l-0.36408888-1.09226667c-0.36408889-1.09226667-0.72817778-2.18453333-1.21362963-3.2768 0-0.12136297-0.12136297-0.24272592-0.12136297-0.48545184-0.24272592-0.84954075-0.60681482-1.69908148-0.9709037-2.54862223l-1.45635555-3.64088888c-0.48545185-1.21362963-0.9709037-2.42725925-1.45635555-3.51952593-0.9709037-2.42725925-1.94180741-4.73315555-3.03407408-7.03905185-0.36408889-0.72817778-0.72817778-1.57771852-1.09226667-2.3058963-0.72817778-1.57771852-1.45635555-3.15543703-2.18453333-4.61179259l-1.09226667-2.18453333v-0.12136297s0-0.12136297-0.12136297-0.12136296c-0.36408889-0.72817778-0.72817778-1.57771852-1.21362962-2.30589629-0.24272592-0.48545185-0.48545185-0.84954075-0.72817778-1.3349926-0.48545185-1.09226667-1.09226667-2.18453333-1.57771852-3.15543703 0-0.12136297-0.12136297-0.24272592-0.12136296-0.3640889 0-0.12136297-0.12136297-0.12136297-0.12136297-0.24272592-0.12136297-0.12136297-0.12136297-0.24272592-0.24272593-0.36408888-0.12136297-0.24272592-0.36408889-0.60681482-0.48545184-0.84954075-0.12136297-0.12136297-0.12136297-0.36408889-0.24272593-0.48545185-0.84954075-1.57771852-1.69908148-3.15543703-2.54862223-4.6117926 0-0.12136297-0.12136297-0.24272592-0.12136295-0.36408888-0.24272592-0.48545185-0.48545185-0.9709037-0.84954075-1.45635556-0.36408889-0.60681482-0.60681482-1.09226667-0.9709037-1.69908148-0.48545185-0.9709037-1.09226667-1.82044445-1.57771852-2.66998518v-0.12136297s0-0.12136297-0.12136296-0.12136296c0 0 0-0.12136297-0.12136296-0.12136297-0.24272592-0.36408889-0.36408889-0.72817778-0.60681482-0.9709037-0.24272592-0.36408889-0.48545185-0.72817778-0.60681481-1.09226667-0.12136297-0.12136297-0.12136297-0.24272592-0.24272593-0.48545185-0.12136297-0.12136297-0.24272592-0.36408889-0.24272593-0.48545185-0.84954075-1.45635555-1.69908148-2.79134815-2.66998517-4.2477037l-0.72817778-1.09226667c-0.48545185-0.84954075-0.9709037-1.57771852-1.45635556-2.30589629-0.36408889-0.60681482-0.84954075-1.21362963-1.21362963-1.82044445-0.12136297-0.24272592-0.36408889-0.48545185-0.48545186-0.72817778v-0.12136296c-0.36408889-0.48545185-0.72817778-0.9709037-0.9709037-1.45635555-0.36408889-0.60681482-0.72817778-1.09226667-1.09226667-1.69908149l-1.82044444-2.54862222c-0.12136297-0.12136297-0.24272592-0.36408889-0.36408889-0.48545185-0.12136297-0.12136297-0.12136297-0.24272592-0.24272592-0.24272593-0.72817778-0.9709037-1.33499259-1.94180741-2.06317038-2.91271111-0.24272592-0.36408889-0.60681482-0.72817778-0.84954074-1.21362963-0.12136297-0.12136297-0.12136297-0.24272592-0.24272593-0.24272593-0.24272592-0.36408889-0.60681482-0.72817778-0.84954073-1.09226667l-0.12136297-0.12136295c-0.36408889-0.48545185-0.72817778-0.9709037-1.21362963-1.57771852-0.24272592-0.36408889-0.60681482-0.72817778-0.84954074-1.09226667-0.48545185-0.60681482-0.84954075-1.09226667-1.33499259-1.69908148-0.48545185-0.60681482-0.84954075-1.09226667-1.33499259-1.69908148l-1.45635555-1.82044445c-0.36408889-0.48545185-0.72817778-0.84954075-1.09226667-1.33499259-0.72817778-0.84954075-1.45635555-1.82044445-2.18453333-2.66998519l-0.24272593-0.24272592c-0.12136297-0.12136297-0.24272592-0.36408889-0.48545185-0.48545185-0.9709037-1.21362963-1.94180741-2.3058963-3.03407408-3.51952593-0.12136297-0.24272592-0.36408889-0.48545185-0.60681481-0.60681481-0.12136297-0.12136297-0.12136297-0.24272592-0.24272593-0.24272593-0.12136297-0.24272592-0.36408889-0.36408889-0.48545185-0.60681481 0 0 0-0.12136297-0.12136297-0.12136297-0.24272592-0.36408889-0.60681482-0.60681482-0.84954073-0.9709037l-0.48545185-0.48545185c-0.60681482-0.72817778-1.33499259-1.45635555-1.94180742-2.18453333-0.60681482-0.72817778-1.21362963-1.33499259-1.82044444-2.06317037l-0.12136296-0.12136297-0.12136296-0.12136296c-1.45635555-1.57771852-2.91271111-3.03407408-4.36906667-4.49042963l-0.48545185-0.48545186-0.9709037-0.9709037-0.3640889-0.36408888-0.48545185-0.48545186-1.21362962-1.21362962-2.06317038-2.06317038-0.36408888-0.36408889c-0.84954075-0.84954075-1.69908148-1.57771852-2.54862223-2.30589629l-0.36408889-0.36408889-0.36408888-0.36408889-0.3640889-0.36408888-0.48545184-0.48545186c-0.24272592-0.24272592-0.48545185-0.48545185-0.72817778-0.60681481-0.36408889-0.36408889-0.72817778-0.60681482-1.09226667-0.97090371-3.76225185-3.39816297-7.5245037-6.67496297-11.52948148-9.95176296-49.152-40.04977778-111.77528889-64.20100741-180.224-64.20100741-13.47128889 0-26.57848889 0.9709037-39.56432593 2.79134815-63.35146667 8.73813333-120.14933333 38.3506963-163.11182222 81.79863703-26.33576297 26.57848889-47.45291852 58.37558518-61.77374815 93.57084445-7.88859259 19.53943703-13.71401482 40.04977778-17.11217777 61.40965926-2.42725925 14.80628148-3.64088889 30.09801482-3.6408889 45.63247408s1.21362963 30.70482963 3.6408889 45.63247406c-16.74808889-13.71401482-31.67573333-29.00574815-44.66157038-45.63247406-22.9376-30.4621037-39.92841482-64.5650963-49.75881481-100.73125927-16.14127408-58.86103703-13.34992592-122.81931852 10.67994074-182.04444445 4.85451852-12.1362963 10.67994075-24.02986667 17.3549037-35.55934814 34.22435555-59.22512592 86.41042963-101.45943703 145.63555556-124.03294814 75.60912592-28.64165925 162.74773333-25.12213333 238.72094814 16.74808888l5.09724445 2.91271112c1.45635555 0.84954075 2.79134815 1.69908148 4.2477037 2.54862221 5.33997037 3.15543703 10.55857778 6.31087408 15.65582223 9.70903704 0 0 0.12136297 0 0.12136296 0.12136296 0.12136297 0 0.12136297 0.12136297 0.24272593 0.12136297l2.18453333 1.45635555h0.12136296s0.12136297 0 0.12136296 0.12136297c0.24272592 0.12136297 0.48545185 0.24272592 0.72817778 0.48545185 0 0 0.12136297 0 0.12136297 0.12136296l0.12136295 0.12136297c0.12136297 0 0.12136297 0.12136297 0.24272593 0.12136296h0.12136297c0.12136297 0.12136297 0.36408889 0.24272592 0.48545185 0.24272592 0.12136297 0.12136297 0.24272592 0.24272592 0.48545185 0.24272592 0.36408889 0.24272592 0.60681482 0.48545185 0.9709037 0.60681483 0.24272592 0.12136297 0.48545185 0.24272592 0.60681482 0.48545184 0.48545185 0.24272592 0.84954075 0.60681482 1.3349926 0.84954075 0.12136297 0 0.12136297 0.12136297 0.24272592 0.12136296s0.12136297 0.12136297 0.24272593 0.12136296 0.12136297 0 0.12136296 0.12136296l1.09226667 0.72817778c0.84954075 0.60681482 1.69908148 1.09226667 2.42725925 1.69908149 0.48545185 0.36408889 1.09226667 0.72817778 1.57771852 1.09226666 0.60681482 0.36408889 1.21362963 0.84954075 1.82044445 1.21362963 0.36408889 0.24272592 0.72817778 0.48545185 0.9709037 0.72817778 0.24272592 0.24272592 0.60681482 0.48545185 0.84954074 0.60681481 1.09226667 0.84954075 2.3058963 1.57771852 3.39816297 2.42725927 0.84954075 0.60681482 1.69908148 1.21362963 2.42725925 1.82044444 2.3058963 1.69908148 4.61179259 3.39816297 6.79632592 5.09724444 1.09226667 0.84954075 2.3058963 1.69908148 3.39816297 2.54862223 0.84954075 0.72817778 1.69908148 1.33499259 2.54862223 2.06317037 0.24272592 0.24272592 0.48545185 0.36408889 0.72817777 0.6068148 0.84954075 0.60681482 1.69908148 1.33499259 2.54862223 1.94180742 2.06317037 1.57771852 4.12634075 3.2768 6.06814814 4.97588148 2.06317037 1.69908148 4.00497778 3.39816297 6.06814816 5.09724444 1.94180741 1.69908148 4.00497778 3.39816297 5.94678517 5.09724444 1.57771852 1.33499259 3.15543703 2.66998518 4.6117926 4.12634075 0.60681482 0.60681482 1.21362963 1.09226667 1.82044445 1.57771852 1.69908148 1.57771852 3.2768 3.03407408 4.97588148 4.61179259l0.48545185 0.48545186c1.82044445 1.69908148 3.64088889 3.39816297 5.46133333 5.2186074 1.94180741 1.82044445 3.76225185 3.64088889 5.58269629 5.5826963 7.64586667 7.64586667 15.04900741 15.53445925 22.20942223 23.66577777 1.21362963 1.45635555 2.42725925 2.79134815 3.64088888 4.2477037 1.57771852 1.69908148 3.03407408 3.51952592 4.49042964 5.33997038 1.09226667 1.33499259 2.18453333 2.54862222 3.15543703 3.88361481 0.9709037 1.09226667 1.94180741 2.3058963 2.79134815 3.39816297 1.69908148 2.06317037 3.2768 4.12634075 4.97588148 6.31087407 1.82044445 2.3058963 3.51952592 4.49042963 5.21860742 6.79632593 2.3058963 3.03407408 4.49042963 6.06814815 6.67496295 9.22358517 1.21362963 1.69908148 2.42725925 3.39816297 3.51952593 5.09724445 0.60681482 0.72817778 1.09226667 1.57771852 1.57771852 2.3058963 1.33499259 1.94180741 2.79134815 4.00497778 4.12634074 6.06814815 1.45635555 2.06317037 2.79134815 4.2477037 4.12634074 6.31087407 1.33499259 1.94180741 2.54862222 4.00497778 3.88361482 6.06814815l2.9127111 4.73315555c1.57771852 2.66998518 3.2768 5.33997037 4.85451853 8.13131853 2.79134815 4.85451852 5.46133333 9.58767408 8.00995555 14.44219258 1.33499259 2.42725925 2.54862222 4.85451852 3.76225185 7.28177779l3.64088889 7.28177777c1.09226667 2.18453333 2.06317037 4.2477037 3.03407408 6.43223704 0.60681482 1.21362963 1.21362963 2.42725925 1.69908147 3.76225185 0.9709037 2.18453333 1.94180741 4.36906667 3.03407408 6.5536l3.64088889 8.37404444c0.12136297 0.36408889 0.24272592 0.72817778 0.48545186 1.09226667 0.9709037 2.3058963 1.82044445 4.49042963 2.79134814 6.79632593l0.72817778 1.82044445c0.24272592 0.48545185 0.36408889 0.9709037 0.60681481 1.45635555 0.36408889 0.72817778 0.60681482 1.57771852 0.84954074 2.3058963 0.48545185 1.09226667 0.84954075 2.3058963 1.3349926 3.51952593 0.9709037 2.42725925 1.82044445 4.73315555 2.66998518 7.1604148 0.72817778 2.18453333 1.57771852 4.36906667 2.3058963 6.5536 0.48545185 1.57771852 1.09226667 3.03407408 1.57771852 4.6117926 0.12136297 0.24272592 0.12136297 0.48545185 0.24272593 0.60681482 0.24272592 0.60681482 0.36408889 1.21362963 0.6068148 1.69908148 0.12136297 0.48545185 0.36408889 1.09226667 0.48545186 1.57771852 0.12136297 0.24272592 0.12136297 0.60681482 0.24272592 0.84954073 0 0.12136297 0 0.12136297 0.12136297 0.24272593 0.36408889 0.9709037 0.60681482 2.06317037 0.9709037 3.03407407 0.36408889 0.9709037 0.60681482 2.06317037 0.9709037 3.03407408 0.12136297 0.24272592 0.12136297 0.48545185 0.24272593 0.72817777l2.18453334 7.28177778c0 0.12136297 0.12136297 0.12136297 0.12136295 0.24272592l1.82044445 6.5536c0.12136297 0.48545185 0.24272592 0.84954075 0.36408888 1.3349926 0.48545185 1.69908148 0.9709037 3.51952592 1.45635557 5.33997037 0 0.12136297 0.12136297 0.24272592 0.12136296 0.48545186 0.24272592 0.84954075 0.48545185 1.69908148 0.60681481 2.42725925 0.12136297 0.48545185 0.24272592 0.84954075 0.36408889 1.21362964 0.12136297 0.24272592 0.12136297 0.60681482 0.24272593 0.84954073l0.36408889 1.45635555c0.12136297 0.60681482 0.24272592 1.09226667 0.36408888 1.6990815v0.12136295c0.12136297 0.72817778 0.36408889 1.33499259 0.48545185 2.06317038 0.12136297 0.48545185 0.24272592 0.84954075 0.24272594 1.33499259 0.12136297 0.48545185 0.24272592 0.84954075 0.24272592 1.33499258 0 0.24272592 0.12136297 0.36408889 0.12136296 0.60681483 0.36408889 1.69908148 0.84954075 3.51952592 1.21362963 5.33997037 0.48545185 2.42725925 0.9709037 4.73315555 1.45635555 7.1604148 0.12136297 0.9709037 0.36408889 1.82044445 0.60681482 2.79134816 0.12136297 0.24272592 0.12136297 0.60681482 0.24272593 0.9709037 0.36408889 1.69908148 0.60681482 3.39816297 0.9709037 5.09724444v0.12136297c0.12136297 0.36408889 0.12136297 0.84954075 0.24272593 1.21362963 0.12136297 0.72817778 0.24272592 1.45635555 0.36408889 2.3058963 0.12136297 0.36408889 0.12136297 0.72817778 0.24272592 1.09226666 0.12136297 0.60681482 0.24272592 1.33499259 0.36408889 1.94180741v0.36408889c0.12136297 0.72817778 0.24272592 1.57771852 0.36408889 2.30589629 0 0.36408889 0.12136297 0.60681482 0.12136297 0.97090371v0.24272592c0 0.24272592 0.12136297 0.60681482 0.12136295 0.9709037 0.12136297 0.48545185 0.12136297 0.9709037 0.24272593 1.45635556 0.12136297 0.48545185 0.12136297 0.9709037 0.24272593 1.45635556 0.12136297 0.48545185 0.12136297 0.9709037 0.24272592 1.45635555 0.12136297 0.9709037 0.24272592 1.94180741 0.48545185 3.03407408 0 0.12136297 0 0.24272592 0.12136297 0.48545185 0.12136297 0.36408889 0.12136297 0.72817778 0.12136296 1.09226667v0.12136295c0.12136297 0.60681482 0.12136297 1.21362963 0.24272593 1.82044445v0.12136297c0 0.36408889 0.12136297 0.72817778 0.12136296 1.09226666 0 0.36408889 0.12136297 0.72817778 0.12136296 1.09226667l0.36408889 2.91271111c0.12136297 0.48545185 0.12136297 0.84954075 0.12136296 1.33499259 0.24272592 1.57771852 0.36408889 3.15543703 0.60681482 4.73315555 0 0.36408889 0.12136297 0.84954075 0.12136297 1.21362964 0 0.24272592 0 0.48545185 0.12136295 0.72817778 0 0.36408889 0 0.60681482 0.12136297 0.9709037v2.79134815c0 0.36408889 0.12136297 0.72817778 0.12136296 0.9709037 0.12136297 0.9709037 0.24272592 2.06317037 0.24272593 3.03407408 0.12136297 0.9709037 0.12136297 2.06317037 0.24272592 3.03407407 0 0.60681482 0.12136297 1.21362963 0.12136297 1.82044445 0 0.48545185 0.12136297 0.84954075 0.12136296 1.33499259V463.48136297c0.24272592 2.54862222 0.36408889 4.97588148 0.48545185 7.5245037V472.94767408c0.12136297 2.06317037 0.24272592 4.00497778 0.24272593 6.06814814v1.3349926c0 1.69908148 0.12136297 3.39816297 0.12136296 5.09724444v0.12136296c0 0.9709037 0.12136297 1.82044445 0.12136296 2.79134815v1.3349926c0.84954075 0.84954075 0.9709037 2.18453333 0.84954075 3.2768z" fill="#C3F1F9" p-id="4036"></path><path d="M754.4832 74.99851852C678.38862222 33.1282963 591.37137778 29.48740742 515.76225185 58.25042964c-59.22512592 22.45214815-111.4112 64.80782222-145.63555555 124.03294814-6.67496297 11.65084445-12.50038518 23.54441482-17.35490371 35.55934814-24.02986667 59.34648889-26.82121482 123.18340741-10.67994074 182.04444445 9.8304 36.16616297 26.82121482 70.26915555 50.1229037 100.36717038 12.98583703 16.62672592 27.79211852 31.91845925 44.66157037 45.63247407 11.65084445 9.46631111 24.27259259 18.20444445 37.62251853 25.97167407 13.47128889 7.76722963 27.1853037 14.32082963 41.2634074 19.6608-20.26761482 7.76722963-40.89931852 12.98583703-61.77374815 15.89854815-37.74388148 5.21860741-75.73048889 2.79134815-112.01801481-6.67496296-58.9824-15.53445925-112.98891852-49.88017778-152.31051852-100.36717038-8.00995555-10.31585185-15.4130963-21.23851852-22.08805926-32.88936295-34.22435555-59.22512592-44.78293333-125.4893037-34.58844444-188.1125926 12.98583703-80.09955555 59.9533037-154.0096 134.71288888-198.9138963 1.45635555-0.84954075 2.79134815-1.69908148 4.2477037-2.54862221l5.09724445-2.91271112c7.28177778-4.12634075 14.68491852-8.00995555 22.20942222-11.7722074 0.60681482-0.36408889 1.21362963-0.60681482 1.82044445-0.84954075 2.42725925-1.21362963 4.73315555-2.3058963 7.16041481-3.39816295 1.45635555-0.72817778 2.91271111-1.33499259 4.36906667-2.06317038 1.69908148-0.84954075 3.39816297-1.57771852 5.2186074-2.30589629 1.69908148-0.72817778 3.51952592-1.57771852 5.33997038-2.3058963 1.69908148-0.72817778 3.51952592-1.45635555 5.33997037-2.18453333 0.24272592-0.12136297 0.48545185-0.24272592 0.72817778-0.24272593 0.48545185-0.24272592 1.09226667-0.48545185 1.57771852-0.60681482 0.12136297-0.12136297 0.36408889-0.12136297 0.60681481-0.24272592 0.12136297 0 0.24272592-0.12136297 0.36408889-0.12136296h0.12136297c0.24272592-0.12136297 0.48545185-0.24272592 0.84954073-0.3640889 0.24272592-0.12136297 0.36408889-0.12136297 0.60681482-0.24272592 0 0 0.12136297 0 0.12136296-0.12136297 0.24272592-0.12136297 0.60681482-0.24272592 0.84954074-0.36408888 0.72817778-0.24272592 1.45635555-0.60681482 2.18453333-0.84954074 0.72817778-0.24272592 1.33499259-0.60681482 2.06317037-0.84954074 0.12136297 0 0.12136297-0.12136297 0.24272593-0.12136297 1.45635555-0.60681482 2.79134815-1.09226667 4.2477037-1.69908148l1.09226667-0.36408889c1.82044445-0.72817778 3.76225185-1.45635555 5.5826963-2.06317036 1.33499259-0.48545185 2.54862222-0.9709037 3.88361481-1.45635556 9.10222222-3.15543703 18.20444445-6.06814815 27.42802964-8.73813333l2.54862221-0.72817778c0.24272592-0.12136297 0.60681482-0.12136297 0.84954074-0.24272593 2.18453333-0.60681482 4.49042963-1.21362963 6.67496297-1.82044445 2.3058963-0.60681482 4.61179259-1.21362963 6.79632593-1.69908147 0.72817778-0.24272592 1.33499259-0.36408889 2.06317036-0.48545186 1.45635555-0.36408889 2.79134815-0.72817778 4.24770371-0.9709037 0.24272592 0 0.36408889-0.12136297 0.60681481-0.12136297 0.72817778-0.12136297 1.33499259-0.36408889 2.06317038-0.48545184 0.9709037-0.24272592 1.94180741-0.48545185 3.03407407-0.72817778l1.82044444-0.36408889 6.91768889-1.45635556c4.61179259-0.9709037 9.10222222-1.82044445 13.71401482-2.54862222 3.03407408-0.60681482 5.94678518-1.09226667 8.98085925-1.45635555l5.09724445-0.72817778c0.24272592 0 0.36408889 0 0.60681482-0.12136297 2.18453333-0.24272592 4.2477037-0.60681482 6.43223703-0.84954074 5.21860741-0.72817778 10.43721482-1.21362963 15.65582223-1.69908148 1.33499259-0.12136297 2.79134815-0.24272592 4.12634074-0.36408889 0.72817778-0.12136297 1.45635555-0.12136297 2.06317036-0.12136297 0.48545185 0 1.09226667-0.12136297 1.57771852-0.12136295s0.9709037-0.12136297 1.45635555-0.12136297c3.15543703-0.24272592 6.18951111-0.48545185 9.34494816-0.60681481l8.00995556-0.36408889c1.09226667 0 2.18453333-0.12136297 3.15543703-0.12136296 2.54862222-0.12136297 4.97588148-0.12136297 7.5245037-0.24272592 3.15543703-0.12136297 6.31087408-0.12136297 9.46631112-0.12136297 12.62174815 0 25.12213333 0.48545185 37.50115555 1.45635555 1.09226667 0.12136297 2.18453333 0.12136297 3.2768 0.24272592 1.94180741 0.12136297 4.00497778 0.36408889 5.94678518 0.60681483 5.21860741 0.48545185 10.43721482 1.09226667 15.65582223 1.69908147 37.98660741 4.97588148 75.3664 14.32082963 111.16847407 27.91348148 4.97588148 1.94180741 9.95176297 3.88361482 14.92764445 5.94678519 3.2768 1.33499259 6.43223703 2.66998518 9.58767407 4.12634075 2.18453333 0.9709037 4.36906667 1.94180741 6.5536 3.03407406 1.21362963 0.60681482 2.54862222 1.09226667 3.76225185 1.69908149 2.18453333 0.9709037 4.2477037 2.06317037 6.43223703 3.03407407 2.06317037 0.9709037 4.00497778 1.94180741 6.06814816 3.03407408 5.70405925 2.54862222 11.77220741 5.82542222 17.71899259 9.22358518z" fill="#82E2F9" p-id="4037"></path><path d="M594.64817778 545.76545185C591.25001482 567.12533334 585.42459259 587.75703704 577.536 607.17511112c-14.19946667 35.31662222-35.43798518 66.99235555-61.77374815 93.57084444-42.96248889 43.32657778-99.63899259 72.93914075-163.11182222 81.79863703-12.98583703 1.82044445-26.09303703 2.79134815-39.56432593 2.79134816-68.32734815 0-131.072-24.02986667-180.224-64.20100741-62.38056297-50.97244445-102.79442963-127.7952-104.8576-214.20562964V505.23022222v-2.18453333-2.79134814-5.5826963c0-6.06814815 0.24272592-12.01493333 0.48545185-17.96171853 0.12136297-1.94180741 0.24272592-4.00497778 0.3640889-5.94678517 0.12136297-2.66998518 0.36408889-5.33997037 0.6068148-7.8885926 0.12136297-1.09226667 0.12136297-2.06317037 0.24272593-3.15543703v-0.24272593c0.12136297-1.94180741 0.36408889-3.88361482 0.48545185-5.82542222 0.48545185-5.21860741 1.09226667-10.43721482 1.69908149-15.65582222 5.33997037-41.14204445 15.89854815-81.43454815 31.31164445-119.90660741 0.12136297-0.48545185 0.36408889-0.84954075 0.48545185-1.33499259 0.9709037-2.42725925 1.94180741-4.85451852 3.03407407-7.28177778l2.54862222-5.82542222c0.24272592-0.48545185 0.36408889-0.9709037 0.60681481-1.45635556 0.48545185-1.21362963 1.09226667-2.42725925 1.57771853-3.51952593 0.60681482-1.45635555 1.33499259-2.79134815 1.9418074-4.2477037l0.72817778-1.45635556c0.12136297-0.36408889 0.24272592-0.60681482 0.48545185-0.9709037 0.60681482-1.21362963 1.21362963-2.42725925 1.69908149-3.64088888 0.72817778-1.57771852 1.45635555-3.03407408 2.30589628-4.6117926 0.72817778-1.57771852 1.57771852-3.03407408 2.3058963-4.6117926 3.15543703-6.06814815 6.43223703-12.1362963 9.70903704-18.20444444 0.84954075-1.45635555 1.69908148-3.03407408 2.54862223-4.49042963 1.69908148-2.91271111 3.39816297-5.82542222 5.09724443-8.61677037 4.12634075-6.79632592 8.37404445-13.47128889 12.86447408-20.02488889 1.45635555-2.3058963 3.03407408-4.49042963 4.61179259-6.67496297 0.12136297-0.24272592 0.24272592-0.36408889 0.3640889-0.6068148 0.12136297-0.24272592 0.24272592-0.36408889 0.48545185-0.60681482l1.09226666-1.45635555c0.60681482-0.84954075 1.33499259-1.82044445 1.94180742-2.66998519 1.69908148-2.42725925 3.51952592-4.85451852 5.2186074-7.16041481 1.09226667-1.57771852 2.3058963-3.15543703 3.51952593-4.6117926 24.51531852-32.03982222 52.91425185-60.80284445 84.46862222-85.92497778 2.06317037-1.69908148 4.2477037-3.2768 6.31087407-4.97588148 2.66998518-2.06317037 5.33997037-4.00497778 8.00995555-6.06814814 0.84954075-0.60681482 1.57771852-1.21362963 2.42725926-1.82044445 2.91271111-2.18453333 5.94678518-4.2477037 8.8594963-6.31087408 0.12136297-0.12136297 0.36408889-0.24272592 0.48545185-0.36408888l6.91768889-4.73315556c7.03905185-4.61179259 14.19946667-9.10222222 21.48124445-13.47128889-74.75958518 44.9042963-121.60568889 118.81434075-134.71288889 198.9138963-10.19448889 62.62328889 0.36408889 128.88746667 34.58844444 188.11259259 6.67496297 11.65084445 14.0781037 22.57351111 22.08805926 32.88936297 39.3216 50.48699259 93.32811852 84.83271111 152.31051852 100.36717037 36.16616297 9.46631111 74.27413333 11.89357037 112.01801482 6.67496296 20.75306667-2.91271111 41.50613333-8.13131852 61.77374815-15.89854816 14.0781037-5.33997037 27.91348148-11.89357037 41.2634074-19.6608 13.71401482-7.76722963 26.33576297-16.50536297 37.98660741-25.97167407z" fill="#58CAF5" p-id="4038"></path><path d="M678.75271111 782.54459259c-4.85451852 12.1362963-10.67994075 24.02986667-17.47626666 35.68071111-34.22435555 59.22512592-86.28906667 101.45943703-145.63555556 123.91158519-75.60912592 28.64165925-162.74773333 25.12213333-238.72094814-16.74808889l-5.09724445-2.91271111c-1.45635555-0.84954075-2.79134815-1.69908148-4.24770371-2.54862222-9.46631111-5.5826963-18.6898963-11.40811852-27.67075556-17.59762963-0.24272592-0.24272592-0.60681482-0.36408889-0.84954073-0.60681482-0.12136297-0.12136297-0.36408889-0.24272592-0.48545185-0.36408888-3.03407408-2.06317037-5.94678518-4.12634075-8.8594963-6.31087408-0.84954075-0.60681482-1.57771852-1.21362963-2.42725926-1.82044444-2.66998518-1.94180741-5.46133333-4.00497778-8.00995556-6.06814815-2.18453333-1.57771852-4.2477037-3.2768-6.31087408-4.97588148-10.92266667-8.73813333-21.48124445-17.84035555-31.67573333-27.30666667-1.45635555-1.33499259-2.79134815-2.66998518-4.2477037-4.00497777-0.24272592-0.12136297-0.36408889-0.36408889-0.60681481-0.60681483-1.82044445-1.69908148-3.64088889-3.51952592-5.46133333-5.33997036l-4.73315556-4.73315556c-1.45635555-1.57771852-3.03407408-3.15543703-4.49042963-4.73315555-1.33499259-1.45635555-2.66998518-2.79134815-4.00497778-4.2477037-1.69908148-1.82044445-3.2768-3.51952592-4.97588148-5.33997038l-0.72817778-0.72817778c-1.33499259-1.57771852-2.79134815-3.15543703-4.12634074-4.73315555-0.36408889-0.36408889-0.72817778-0.72817778-0.9709037-1.09226667-1.45635555-1.57771852-2.79134815-3.2768-4.24770371-4.85451852-4.85451852-5.70405925-9.58767408-11.65084445-14.19946667-17.59762963-0.12136297-0.12136297-0.24272592-0.24272592-0.36408888-0.48545185-1.21362963-1.57771852-2.42725925-3.15543703-3.51952593-4.61179259-1.21362963-1.57771852-2.3058963-3.15543703-3.51952592-4.73315556l-0.72817778-1.09226666c-0.48545185-0.60681482-0.9709037-1.33499259-1.45635555-1.94180741-1.82044445-2.54862222-3.64088889-5.21860741-5.46133334-7.88859259-0.12136297-0.12136297-0.24272592-0.24272592-0.24272593-0.36408889-0.12136297-0.12136297-0.24272592-0.24272592-0.36408888-0.48545185-0.12136297-0.24272592-0.36408889-0.48545185-0.48545185-0.72817778-1.21362963-1.82044445-2.42725925-3.64088889-3.76225186-5.58269629-1.09226667-1.69908148-2.18453333-3.2768-3.2768-4.97588149-1.94180741-3.15543703-4.00497778-6.18951111-5.94678519-9.34494814l-3.2768-5.46133334c-1.09226667-1.82044445-2.18453333-3.64088889-3.15543703-5.46133333l-2.91271111-5.09724445c-0.9709037-1.69908148-1.82044445-3.39816297-2.79134815-5.09724444l-6.5536-12.37902222c-1.57771852-3.15543703-3.15543703-6.18951111-4.6117926-9.34494815l-0.72817778-1.45635555c-0.60681482-1.33499259-1.21362963-2.54862222-1.82044443-3.88361482l-0.48545185-0.9709037c0-0.12136297-0.12136297-0.24272592-0.12136297-0.24272593-0.48545185-0.9709037-0.9709037-1.94180741-1.33499259-3.03407407-0.36408889-0.72817778-0.72817778-1.45635555-0.97090371-2.3058963-0.12136297-0.12136297-0.12136297-0.24272592-0.24272592-0.48545185-0.12136297-0.12136297-0.12136297-0.36408889-0.24272593-0.48545185-0.24272592-0.60681482-0.48545185-1.09226667-0.72817777-1.69908148-0.36408889-0.72817778-0.60681482-1.45635555-0.97090371-2.18453334-0.72817778-1.45635555-1.33499259-3.03407408-1.9418074-4.6117926-0.72817778-1.82044445-1.45635555-3.51952592-2.18453334-5.33997036-0.24272592-0.60681482-0.60681482-1.33499259-0.84954074-1.94180742-0.24272592-0.72817778-0.60681482-1.45635555-0.84954074-2.18453333-15.29173333-38.22933333-25.72894815-78.15774815-30.94755556-118.9357037-0.72817778-5.21860741-1.21362963-10.43721482-1.69908148-15.65582222-0.24272592-2.06317037-0.36408889-4.12634075-0.60681481-6.06814815v-0.24272593c0-0.48545185-0.12136297-0.9709037-0.12136297-1.45635555 0-0.48545185-0.12136297-0.9709037-0.12136296-1.45635555-0.24272592-2.79134815-0.36408889-5.70405925-0.60681482-8.49540741v-0.36408889-0.36408889c-0.12136297-2.42725925-0.24272592-4.73315555-0.36408888-7.16041481-0.12136297-1.94180741-0.12136297-4.00497778-0.24272592-5.94678519 0-0.9709037-0.12136297-1.82044445-0.12136297-2.79134815 0-1.82044445-0.12136297-3.64088889-0.12136296-5.46133333 1.94180741 86.41042963 42.47703703 163.23318518 104.8576 214.20562963 49.152 40.04977778 111.89665185 64.20100741 180.224 64.2010074 13.34992592 0 26.57848889-0.9709037 39.56432593-2.79134815 63.35146667-8.73813333 120.14933333-38.3506963 163.11182222-81.79863703 26.33576297-26.57848889 47.45291852-58.37558518 61.77374814-93.57084445 7.88859259-19.53943703 13.71401482-40.04977778 17.11217778-61.40965925 2.42725925-14.80628148 3.64088889-30.09801482 3.64088889-45.51111112 0-15.53445925-1.21362963-30.70482963-3.64088889-45.63247407 16.74808889 13.71401482 31.67573333 29.00574815 44.66157036 45.63247407 23.42305185 29.97665185 40.2925037 64.20100741 50.12290372 100.36717037 16.384 59.10376297 13.71401482 123.06204445-10.31585186 182.28717037z" fill="#2F99F4" p-id="4039"></path><path d="M898.54103703 721.13493334c-12.98583703 80.09955555-59.9533037 154.13096297-134.71288888 198.9138963-1.45635555 0.84954075-2.79134815 1.69908148-4.2477037 2.54862221l-5.09724445 2.91271112c-3.15543703 1.82044445-6.18951111 3.51952592-9.34494815 5.2186074-4.85451852 2.54862222-9.70903703 5.09724445-14.68491852 7.52450371-2.18453333 1.09226667-4.2477037 2.06317037-6.43223703 3.03407407-1.21362963 0.60681482-2.42725925 1.21362963-3.76225185 1.69908149-2.18453333 0.9709037-4.36906667 1.94180741-6.5536 3.03407406-1.82044445 0.84954075-3.76225185 1.57771852-5.5826963 2.42725927-1.33499259 0.60681482-2.54862222 1.09226667-3.88361482 1.69908148-1.21362963 0.48545185-2.42725925 0.9709037-3.76225185 1.57771852-1.09226667 0.48545185-2.18453333 0.9709037-3.2768 1.33499259-0.12136297 0.12136297-0.36408889 0.12136297-0.48545185 0.24272593-2.18453333 0.84954075-4.36906667 1.69908148-6.67496296 2.54862221-0.24272592 0.12136297-0.48545185 0.12136297-0.72817778 0.24272594-0.60681482 0.24272592-1.33499259 0.48545185-1.94180741 0.72817778l-0.9709037 0.36408888c-1.21362963 0.48545185-2.42725925 0.84954075-3.51952593 1.33499259-0.12136297 0-0.12136297 0.12136297-0.24272593 0.12136296l-5.09724444 1.82044445c-0.9709037 0.36408889-1.94180741 0.72817778-2.91271111 0.9709037-0.12136297 0-0.12136297 0-0.24272592 0.12136297-1.33499259 0.48545185-2.66998518 0.9709037-4.00497778 1.33499259-0.12136297 0-0.12136297 0-0.24272592 0.12136296-1.45635555 0.48545185-3.03407408 0.9709037-4.49042964 1.45635556-3.64088889 1.21362963-7.28177778 2.3058963-10.92266666 3.39816296l-7.64586667 2.18453333c-2.79134815 0.84954075-5.70405925 1.57771852-8.49540741 2.3058963-2.79134815 0.72817778-5.70405925 1.45635555-8.4954074 2.18453333-5.09724445 1.21362963-10.07312592 2.42725925-15.17037038 3.39816297-1.21362963 0.24272592-2.54862222 0.60681482-3.76225184 0.84954073-2.06317037 0.48545185-4.12634075 0.84954075-6.31087408 1.21362964-0.48545185 0.12136297-0.9709037 0.24272592-1.45635556 0.24272592-1.57771852 0.24272592-3.03407408 0.60681482-4.61179259 0.84954074-1.57771852 0.24272592-3.2768 0.60681482-4.85451852 0.84954075-2.42725925 0.36408889-4.73315555 0.72817778-7.16041482 1.09226667-2.91271111 0.48545185-5.82542222 0.84954075-8.73813333 1.21362962-5.21860741 0.60681482-10.43721482 1.21362963-15.65582222 1.69908148-1.94180741 0.24272592-4.00497778 0.36408889-5.94678518 0.60681482-1.09226667 0.12136297-2.18453333 0.12136297-3.2768 0.24272592-12.37902222 0.9709037-24.87940741 1.45635555-37.50115556 1.45635556-9.46631111 0-18.93262222-0.24272592-28.15620741-0.84954074h-0.12136296-0.12136297c-0.84954075 0-1.69908148-0.12136297-2.54862222-0.12136296-2.18453333-0.12136297-4.36906667-0.24272592-6.5536-0.48545186h-0.48545185c-0.60681482 0-1.09226667-0.12136297-1.69908148-0.12136296-0.24272592 0-0.60681482 0-0.84954075-0.12136296-0.84954075 0-1.69908148-0.12136297-2.54862222-0.24272592-1.21362963-0.12136297-2.42725925-0.24272592-3.76225185-0.3640889-2.66998518-0.24272592-5.21860741-0.48545185-7.88859259-0.84954074-2.54862222-0.24272592-5.21860741-0.60681482-7.76722962-0.9709037l-5.46133334-0.72817778h-0.36408888c-0.48545185-0.12136297-0.84954075-0.12136297-1.3349926-0.24272593-35.55934815-5.09724445-70.39051852-14.19946667-104.00805926-26.94257778-1.94180741-0.72817778-3.88361482-1.45635555-5.70405926-2.30589629-0.84954075-0.36408889-1.57771852-0.60681482-2.42725926-0.97090371-1.94180741-0.72817778-3.88361482-1.57771852-5.82542222-2.42725925-1.69908148-0.72817778-3.39816297-1.45635555-4.97588148-2.06317037-1.82044445-0.84954075-3.76225185-1.57771852-5.5826963-2.42725927-1.69908148-0.72817778-3.39816297-1.57771852-5.2186074-2.30589628-0.72817778-0.36408889-1.45635555-0.72817778-2.3058963-0.97090372-0.72817778-0.36408889-1.45635555-0.60681482-2.18453334-0.9709037-1.82044445-0.84954075-3.64088889-1.69908148-5.46133333-2.66998518-2.3058963-1.09226667-4.61179259-2.3058963-6.79632592-3.39816297-0.48545185-0.24272592-0.84954075-0.48545185-1.3349926-0.60681481-0.84954075-0.48545185-1.82044445-0.9709037-2.66998518-1.45635555-1.82044445-0.9709037-3.64088889-1.82044445-5.46133333-2.79134815-3.15543703-1.69908148-6.31087408-3.39816297-9.34494815-5.21860742 75.97321482 41.87022222 163.11182222 45.38974815 238.72094815 16.7480889 59.22512592-22.45214815 111.4112-64.80782222 145.63555555-123.91158518 6.67496297-11.65084445 12.50038518-23.54441482 17.47626666-35.68071112 24.02986667-59.22512592 26.82121482-123.18340741 10.67994074-182.04444444-9.8304-36.16616297-26.82121482-70.26915555-50.1229037-100.36717038-12.98583703-16.62672592-27.79211852-31.91845925-44.66157037-45.63247406-11.65084445-9.46631111-24.27259259-18.20444445-37.62251852-25.97167408-13.47128889-7.76722963-27.1853037-14.32082963-41.26340741-19.6608 20.26761482-7.76722963 40.89931852-12.98583703 61.77374816-15.89854814 37.74388148-5.21860741 75.73048889-2.79134815 112.01801481 6.67496295 58.9824 15.53445925 112.98891852 49.75881482 152.31051852 100.36717038 8.00995555 10.31585185 15.4130963 21.23851852 22.08805926 32.88936295 34.34571852 59.10376297 44.9042963 125.4893037 34.83117036 187.99122964z" fill="#2078EF" p-id="4040"></path><path d="M1003.39863703 500.25434075v6.67496295c0 1.82044445 0 3.64088889-0.12136295 5.46133334 0 0.9709037 0 1.82044445-0.12136297 2.79134815 0 1.94180741-0.12136297 4.00497778-0.24272593 5.94678518-0.12136297 2.54862222-0.24272592 4.97588148-0.36408888 7.52450371-0.12136297 3.03407408-0.36408889 5.94678518-0.60681482 8.98085926-0.12136297 1.09226667-0.12136297 2.06317037-0.24272593 3.15543703-0.12136297 0.9709037-0.12136297 2.06317037-0.24272592 3.03407408s-0.24272592 2.06317037-0.24272593 3.03407407c-0.48545185 4.97588148-1.09226667 9.95176297-1.69908148 14.80628148 0 0.24272592-0.12136297 0.48545185-0.12136297 0.72817778 0 0.12136297 0 0.36408889-0.12136295 0.48545186-0.12136297 0.60681482-0.12136297 1.21362963-0.24272593 1.82044444-0.12136297 0.48545185-0.12136297 1.09226667-0.24272592 1.57771851 0 0.24272592 0 0.48545185-0.12136297 0.72817778 0 0.24272592 0 0.48545185-0.12136296 0.72817778 0 0.36408889-0.12136297 0.72817778-0.12136297 1.09226667 0 0.36408889-0.12136297 0.72817778-0.12136296 1.09226667v0.12136296c0 0.36408889-0.12136297 0.72817778-0.12136296 1.09226667-0.24272592 1.45635555-0.48545185 2.91271111-0.60681481 4.36906666l-0.72817779 4.36906667c-0.48545185 2.66998518-0.84954075 5.21860741-1.33499258 7.88859259-0.36408889 2.18453333-0.84954075 4.2477037-1.21362963 6.43223704-0.12136297 0.84954075-0.36408889 1.69908148-0.48545185 2.54862222-0.12136297 0.84954075-0.36408889 1.69908148-0.48545186 2.54862222l-1.09226666 5.46133333c-0.12136297 0.60681482-0.24272592 1.09226667-0.3640889 1.69908149-0.60681482 2.79134815-1.21362963 5.46133333-1.9418074 8.25268148-0.72817778 2.79134815-1.45635555 5.70405925-2.18453333 8.4954074-0.72817778 2.54862222-1.33499259 5.09724445-2.06317037 7.64586667-0.12136297 0.24272592-0.12136297 0.48545185-0.24272593 0.84954075v0.24272592l-1.82044444 6.18951111c-0.12136297 0.48545185-0.24272592 0.84954075-0.3640889 1.21362963-0.24272592 0.72817778-0.36408889 1.45635555-0.60681481 2.06317037-0.12136297 0.24272592-0.12136297 0.60681482-0.24272592 0.84954075-0.60681482 1.82044445-1.09226667 3.76225185-1.69908148 5.58269628-0.12136297 0.48545185-0.36408889 1.09226667-0.48545186 1.57771852-0.72817778 2.18453333-1.33499259 4.2477037-2.06317036 6.43223704-0.24272592 0.60681482-0.48545185 1.33499259-0.72817778 1.94180741-0.72817778 2.06317037-1.45635555 4.2477037-2.18453334 6.31087408-0.24272592 0.60681482-0.48545185 1.21362963-0.60681481 1.82044444-0.9709037 2.54862222-1.82044445 5.09724445-2.79134815 7.64586666-0.12136297 0.24272592-0.12136297 0.48545185-0.24272592 0.60681482 0 0.12136297-0.12136297 0.24272592-0.12136297 0.48545185-0.24272592 0.72817778-0.48545185 1.33499259-0.84954075 2.06317037-0.12136297 0.36408889-0.24272592 0.72817778-0.36408888 0.9709037-0.60681482 1.45635555-1.09226667 2.79134815-1.57771852 4.12634075-0.24272592 0.48545185-0.36408889 0.9709037-0.60681481 1.45635555-0.84954075 2.18453333-1.82044445 4.2477037-2.66998519 6.43223703 0 0.12136297-0.12136297 0.24272592-0.12136296 0.3640889-0.12136297 0.12136297-0.12136297 0.24272592-0.12136297 0.36408888l-0.36408888 0.72817779c-0.12136297 0.48545185-0.36408889 0.84954075-0.60681482 1.21362963-0.72817778 1.82044445-1.57771852 3.64088889-2.3058963 5.46133333 0 0 0 0.12136297-0.12136295 0.12136297-0.72817778 1.69908148-1.57771852 3.39816297-2.3058963 5.2186074-0.60681482 1.21362963-1.09226667 2.42725925-1.69908148 3.51952593-0.12136297 0.12136297-0.12136297 0.36408889-0.24272594 0.60681481-0.48545185 0.9709037-0.9709037 2.06317037-1.45635555 3.03407408-0.9709037 2.18453333-2.06317037 4.2477037-3.15543703 6.43223703-0.24272592 0.48545185-0.48545185 1.09226667-0.72817778 1.57771852-0.24272592 0.60681482-0.60681482 1.09226667-0.84954075 1.69908148-0.24272592 0.60681482-0.60681482 1.33499259-0.9709037 1.94180741l-0.36408889 0.72817777-0.36408888 0.72817779c-0.36408889 0.72817778-0.84954075 1.57771852-1.21362963 2.30589628-0.72817778 1.45635555-1.57771852 2.91271111-2.3058963 4.36906667-1.57771852 2.79134815-3.03407408 5.70405925-4.73315555 8.49540741-0.9709037 1.69908148-1.94180741 3.51952592-3.03407408 5.21860742-1.57771852 2.79134815-3.2768 5.5826963-4.97588148 8.37404443-0.24272592 0.36408889-0.36408889 0.72817778-0.60681482 0.97090371-1.69908148 2.91271111-3.51952592 5.82542222-5.33997037 8.61677036-0.12136297 0.24272592-0.36408889 0.60681482-0.48545185 0.84954075l-0.12136296 0.12136297c-1.69908148 2.66998518-3.39816297 5.21860741-5.09724444 7.76722962-1.94180741 2.91271111-3.88361482 5.82542222-5.82542222 8.61677038-1.09226667 1.57771852-2.3058963 3.15543703-3.39816297 4.85451851-0.72817778 0.9709037-1.45635555 2.06317037-2.18453333 3.03407407-1.09226667 1.57771852-2.3058963 3.15543703-3.51952593 4.73315556-1.21362963 1.57771852-2.3058963 3.15543703-3.51952593 4.61179259-1.82044445 2.3058963-3.51952592 4.61179259-5.46133334 6.91768889-1.69908148 2.18453333-3.51952592 4.36906667-5.33997036 6.5536-0.12136297 0.12136297-0.24272592 0.36408889-0.36408889 0.48545186-1.57771852 1.82044445-3.15543703 3.76225185-4.73315555 5.5826963-1.45635555 1.69908148-2.79134815 3.2768-4.2477037 4.97588147-2.18453333 2.54862222-4.49042963 5.09724445-6.79632593 7.64586667-1.82044445 1.94180741-3.51952592 3.88361482-5.33997037 5.82542222-1.57771852 1.69908148-3.15543703 3.2768-4.73315556 4.85451852-0.48545185 0.60681482-1.09226667 1.09226667-1.69908148 1.69908148-1.57771852 1.69908148-3.2768 3.2768-4.85451852 4.97588148-0.12136297 0.12136297-0.24272592 0.36408889-0.48545186 0.48545186l-4.2477037 4.2477037c-1.82044445 1.82044445-3.76225185 3.64088889-5.70405925 5.46133333-1.21362963 1.09226667-2.42725925 2.18453333-3.51952593 3.2768-1.09226667 1.09226667-2.3058963 2.06317037-3.39816297 3.15543704-0.60681482 0.60681482-1.21362963 1.09226667-1.82044443 1.69908148-1.45635555 1.33499259-2.91271111 2.66998518-4.36906667 3.88361482-0.72817778 0.72817778-1.45635555 1.33499259-2.3058963 1.9418074-1.33499259 1.21362963-2.79134815 2.42725925-4.2477037 3.51952593-0.36408889 0.36408889-0.84954075 0.72817778-1.21362963 0.9709037-1.82044445 1.57771852-3.64088889 3.03407408-5.5826963 4.6117926-1.82044445 1.57771852-3.76225185 3.03407408-5.5826963 4.49042963-1.09226667 0.84954075-2.3058963 1.82044445-3.39816296 2.66998517-1.09226667 0.84954075-2.3058963 1.82044445-3.51952592 2.6699852-2.3058963 1.82044445-4.73315555 3.51952592-7.03905186 5.2186074-0.84954075 0.60681482-1.69908148 1.21362963-2.42725926 1.82044445-1.82044445 1.33499259-3.51952592 2.54862222-5.33997037 3.76225185-2.18453333 1.57771852-4.49042963 3.15543703-6.79632593 4.6117926-0.12136297 0-0.12136297 0.12136297-0.24272592 0.12136295 0 0-0.12136297 0-0.12136296 0.12136297-0.12136297 0.12136297-0.36408889 0.24272592-0.48545185 0.36408888-0.12136297 0-0.12136297 0.12136297-0.24272593 0.12136297l-1.09226667 0.72817778c-0.84954075 0.60681482-1.69908148 1.09226667-2.42725925 1.57771852-0.9709037 0.60681482-1.94180741 1.33499259-2.91271112 1.9418074-0.24272592 0.12136297-0.48545185 0.24272592-0.72817777 0.48545186-0.12136297 0-0.12136297 0.12136297-0.24272593 0.12136295h-0.12136297c-0.12136297 0.12136297-0.24272592 0.12136297-0.36408888 0.24272594-0.12136297 0.12136297-0.24272592 0.12136297-0.24272593 0.24272592l-0.12136296 0.12136296c-4.85451852 3.15543703-9.95176297 6.18951111-14.92764444 9.22358518 74.75958518-44.9042963 121.60568889-118.81434075 134.71288888-198.91389628 10.07312592-62.62328889-0.36408889-128.88746667-34.58844444-188.1125926-6.67496297-11.65084445-14.0781037-22.57351111-22.08805926-32.88936297-39.3216-50.48699259-93.32811852-84.83271111-152.31051852-100.36717036-36.16616297-9.58767408-74.27413333-12.01493333-112.01801481-6.67496297-20.87442963 2.91271111-41.50613333 8.13131852-61.77374815 15.89854815-14.0781037 5.33997037-27.79211852 11.89357037-41.26340742 19.6608-13.47128889 7.76722963-25.97167408 16.384-37.6225185 25.97167408 3.39816297-21.35988148 9.22358518-41.99158518 17.11217777-61.40965926 14.19946667-35.31662222 35.43798518-66.99235555 61.77374815-93.57084445C559.33155555 256.07205926 616.00805925 226.4594963 679.48088889 217.6c12.98583703-1.82044445 26.09303703-2.79134815 39.56432593-2.79134815 68.32734815 0 131.072 24.02986667 180.224 64.20100741 3.88361482 3.15543703 7.76722963 6.5536 11.52948148 9.95176296 0.36408889 0.36408889 0.72817778 0.60681482 1.09226667 0.9709037 0.24272592 0.24272592 0.48545185 0.48545185 0.72817778 0.60681483l0.48545184 0.48545184 0.36408889 0.3640889 0.36408889 0.36408888 0.36408888 0.36408889c0.84954075 0.72817778 1.69908148 1.57771852 2.54862223 2.3058963l0.36408889 0.36408889 2.06317038 2.06317037 1.69908147 1.69908148 0.36408889 0.36408889 0.97090371 0.9709037 0.48545185 0.48545186c1.45635555 1.45635555 2.91271111 3.03407408 4.36906666 4.49042962l0.12136297 0.12136297 0.12136295 0.12136296c0.60681482 0.72817778 1.21362963 1.33499259 1.82044445 2.06317037 0.72817778 0.72817778 1.33499259 1.45635555 1.94180741 2.18453333l0.48545186 0.48545185c0.24272592 0.36408889 0.60681482 0.60681482 0.84954073 0.97090371 0 0 0 0.12136297 0.12136297 0.12136296 0.12136297 0.24272592 0.36408889 0.36408889 0.48545185 0.60681482 0.12136297 0.12136297 0.12136297 0.24272592 0.24272593 0.24272592 0.24272592 0.24272592 0.36408889 0.48545185 0.6068148 0.60681482 0.9709037 1.09226667 2.06317037 2.3058963 3.03407408 3.51952592 0.12136297 0.12136297 0.24272592 0.36408889 0.48545185 0.48545185l0.24272593 0.24272593c0.72817778 0.84954075 1.45635555 1.82044445 2.18453334 2.66998519 0.36408889 0.48545185 0.72817778 0.84954075 1.09226666 1.33499259l1.45635556 1.82044444c0.48545185 0.60681482 0.84954075 1.09226667 1.33499258 1.69908149 0.48545185 0.60681482 0.84954075 1.09226667 1.3349926 1.69908148 0.24272592 0.36408889 0.60681482 0.72817778 0.84954074 1.09226667 0.36408889 0.48545185 0.72817778 0.9709037 1.21362963 1.57771851l0.12136296 0.12136297c0.24272592 0.36408889 0.60681482 0.72817778 0.84954074 1.09226666 0.12136297 0.12136297 0.12136297 0.24272592 0.24272593 0.24272592 0.24272592 0.36408889 0.60681482 0.72817778 0.84954074 1.21362964 0.72817778 0.9709037 1.45635555 1.94180741 2.06317038 2.91271111 0.12136297 0.12136297 0.12136297 0.24272592 0.24272592 0.24272592 0.12136297 0.12136297 0.24272592 0.36408889 0.36408889 0.48545185l1.82044444 2.54862223c0.36408889 0.60681482 0.72817778 1.09226667 1.09226667 1.69908147 0.36408889 0.48545185 0.72817778 0.9709037 0.9709037 1.45635557v0.12136296c0.12136297 0.24272592 0.36408889 0.48545185 0.48545186 0.72817777 0.9709037 1.33499259 1.82044445 2.79134815 2.66998518 4.12634075l0.72817778 1.09226667c0.84954075 1.45635555 1.82044445 2.79134815 2.66998518 4.2477037 0.12136297 0.12136297 0.24272592 0.36408889 0.24272593 0.48545185 0.12136297 0.12136297 0.12136297 0.24272592 0.24272593 0.48545185 0.24272592 0.36408889 0.48545185 0.72817778 0.6068148 1.09226666 0.24272592 0.36408889 0.36408889 0.72817778 0.60681483 0.97090372 0 0 0 0.12136297 0.12136295 0.12136295 0 0 0 0.12136297 0.12136297 0.12136297v0.12136296c0.48545185 0.84954075 1.09226667 1.82044445 1.57771852 2.66998519 0.36408889 0.60681482 0.60681482 1.09226667 0.9709037 1.69908148 0.24272592 0.48545185 0.60681482 0.9709037 0.84954075 1.45635555 0 0.12136297 0.12136297 0.24272592 0.12136295 0.3640889 0.84954075 1.57771852 1.69908148 3.03407408 2.54862223 4.61179258 0.12136297 0.12136297 0.12136297 0.36408889 0.24272593 0.48545185 0.12136297 0.24272592 0.36408889 0.60681482 0.48545184 0.84954074 0.12136297 0.12136297 0.12136297 0.24272592 0.24272593 0.3640889 0 0.12136297 0.12136297 0.12136297 0.12136297 0.24272593s0.12136297 0.24272592 0.12136296 0.36408888c0.60681482 1.09226667 1.09226667 2.06317037 1.57771852 3.15543704 0.24272592 0.48545185 0.48545185 0.84954075 0.72817778 1.33499258 0.48545185 0.72817778 0.84954075 1.57771852 1.21362962 2.3058963 0 0 0 0.12136297 0.12136297 0.12136297v0.12136296l1.09226666 2.18453334c0.72817778 1.57771852 1.45635555 3.03407408 2.18453334 4.61179259 0.36408889 0.72817778 0.72817778 1.57771852 1.09226666 2.30589629 1.09226667 2.3058963 2.06317037 4.73315555 3.03407408 7.03905185 0.48545185 1.21362963 0.9709037 2.3058963 1.45635556 3.51952593l1.45635555 3.64088889c0.36408889 0.84954075 0.72817778 1.69908148 0.9709037 2.54862222 0.12136297 0.12136297 0.12136297 0.24272592 0.12136296 0.48545186 0.36408889 1.09226667 0.84954075 2.18453333 1.21362964 3.2768l0.36408888 1.09226666c0.36408889 0.9709037 0.72817778 2.06317037 1.09226667 3.03407407 0.24272592 0.72817778 0.48545185 1.33499259 0.72817778 2.06317037 0.24272592 0.60681482 0.36408889 1.09226667 0.60681482 1.69908148 0.48545185 1.21362963 0.84954075 2.54862222 1.21362962 3.76225186l0.72817778 2.54862222c0.24272592 0.72817778 0.48545185 1.45635555 0.72817778 2.3058963 0.12136297 0.36408889 0.12136297 0.72817778 0.24272593 0.9709037 0 0.12136297 0 0.12136297 0.12136295 0.24272592 0 0.12136297 0.12136297 0.24272592 0.12136297 0.48545186v0.12136296c0.12136297 0.36408889 0.12136297 0.60681482 0.24272592 0.9709037 0.24272592 0.72817778 0.48545185 1.57771852 0.60681483 2.3058963v0.12136297l0.72817777 2.9127111c0.24272592 0.84954075 0.36408889 1.57771852 0.60681481 2.42725926 0.12136297 0.24272592 0.12136297 0.48545185 0.12136297 0.72817779 0.36408889 1.33499259 0.72817778 2.66998518 0.9709037 4.12634073 0.24272592 0.84954075 0.36408889 1.57771852 0.60681482 2.42725927 0 0.12136297 0 0.24272592 0.12136296 0.24272592 0.12136297 0.72817778 0.24272592 1.45635555 0.48545185 2.18453333 0.36408889 1.45635555 0.60681482 3.03407408 0.9709037 4.49042963 0 0.36408889 0.12136297 0.72817778 0.24272592 0.9709037 0.12136297 0.84954075 0.36408889 1.82044445 0.48545186 2.6699852 0.12136297 0.60681482 0.24272592 1.09226667 0.24272592 1.69908147l0.72817779 4.00497778c0.24272592 1.33499259 0.36408889 2.66998518 0.60681481 4.00497778 0.24272592 1.33499259 0.36408889 2.66998518 0.60681482 4.00497777 0.12136297 0.9709037 0.24272592 2.06317037 0.36408888 3.03407408v0.12136296c0 0.60681482 0.12136297 1.21362963 0.24272592 1.82044444 0.12136297 0.9709037 0.24272592 2.06317037 0.3640889 3.03407408 0.12136297 1.33499259 0.24272592 2.66998518 0.36408888 4.12634074 0.12136297 0.84954075 0.12136297 1.69908148 0.24272594 2.54862223 0 0.24272592 0 0.48545185 0.12136295 0.84954074v0.84954073c0.12136297 1.33499259 0.12136297 2.66998518 0.24272593 4.00497778 0.12136297 1.33499259 0.12136297 2.79134815 0.24272593 4.12634075s0.12136297 2.79134815 0.12136297 4.12634074v5.2186074c-0.9709037 1.82044445-0.9709037 2.79134815-0.97090372 3.76225186z" fill="#1A64EA" p-id="4041"></path></svg>